<svg id="Capa_1" data-name="Capa 1" xmlns="http://www.w3.org/2000/svg" viewBox="0 0 196.38 111.24"><defs><style>.cls-1{fill:#c12127;}.cls-1,.cls-2,.cls-3,.cls-4,.cls-5,.cls-7{stroke:#e4e5e6;fill-rule:evenodd;}.cls-1,.cls-2,.cls-3,.cls-4,.cls-5,.cls-6,.cls-7{stroke-miterlimit:22.93;stroke-width:0.27px;}.cls-2{fill:#5c1021;}.cls-3{fill:#ec6a6b;}.cls-4{fill:#e42528;}.cls-5{fill:#84171b;}.cls-6{fill:none;stroke:#691222;}.cls-7{fill:#c3292c;}</style></defs><polygon class="cls-1" points="54.8 69.1 54.8 58.14 61.18 59.69 61.19 69.7 54.8 69.1"/><polygon class="cls-1" points="131.77 36.35 131.81 72.94 88.51 74.54 88.54 44.87 131.77 36.35"/><polygon class="cls-2" points="131.77 36.04 131.65 0.2 88.54 17.72 88.54 44.56 131.77 36.04"/><polygon class="cls-2" points="131.8 111.09 131.81 73.6 88.51 75.01 88.5 105.44 131.8 111.09"/><polygon class="cls-1" points="132.24 36.04 132.12 0.2 155.9 7.88 155.9 40.09 132.24 36.04"/><polygon class="cls-3" points="156.37 40.09 156.37 7.88 177.85 14.52 177.85 44.44 156.37 40.09"/><polygon class="cls-2" points="132.28 73.13 132.24 36.35 155.9 40.41 155.86 74.52 132.28 73.13"/><polygon class="cls-4" points="156.33 74.52 156.37 40.41 177.85 44.75 177.84 75.51 156.33 74.52"/><polygon class="cls-1" points="178.3 75.51 178.32 44.75 196.22 49.1 196.24 77.19 178.3 75.51"/><polygon class="cls-3" points="132.27 111.09 132.28 73.6 155.86 74.98 155.86 110.27 132.27 111.09"/><polygon class="cls-1" points="156.33 110.27 156.33 74.98 177.84 75.98 177.84 109.08 156.33 110.27"/><polygon class="cls-2" points="178.3 109.08 178.3 75.98 196.24 77.66 196.24 108.08 178.3 109.08"/><polygon class="cls-3" points="88.05 74.54 88.07 44.87 58.06 52.54 58.06 76.97 88.05 74.54"/><polygon class="cls-1" points="88.03 105.44 88.05 75.01 58.06 77.44 58.06 100.29 88.03 105.44"/><polygon class="cls-1" points="88.07 44.56 88.07 31.14 78.19 33.68 78.26 47.06 88.07 44.56"/><polygon class="cls-2" points="39.9 78.78 39.92 56.32 21.39 60.59 21.39 79.9 39.9 78.78"/><polygon class="cls-5" points="44.25 50.64 44.2 35.2 54.45 38.5 54.45 52.39 44.25 50.64"/><line class="cls-6" x1="18.32" y1="45.34" x2="36.42" y2="38.22"/><line class="cls-6" x1="42.77" y1="55.72" x2="51.05" y2="53.91"/><line class="cls-6" x1="58.5" y1="29.53" x2="77.45" y2="21.97"/><line class="cls-6" x1="17.88" y1="94.67" x2="51.84" y2="99.56"/><polygon class="cls-3" points="11.43 62.61 11.44 48.16 0.14 52.67 0.14 65.09 11.43 62.61"/><polygon class="cls-7" points="0.26 92.13 0.26 80.94 7.3 81.36 7.3 91.88 0.26 92.13"/><line class="cls-6" x1="10.37" y1="80.4" x2="17.73" y2="80.01"/></svg>